<?xml version="1.0" standalone="no"?>
<!DOCTYPE svg PUBLIC "-//W3C//DTD SVG 20010904//EN"
 "http://www.w3.org/TR/2001/REC-SVG-20010904/DTD/svg10.dtd">
<svg version="1.0" xmlns="http://www.w3.org/2000/svg"
 width="260.000000pt" height="260.000000pt" viewBox="0 0 260.000000 260.000000"
 preserveAspectRatio="xMidYMid meet">
<metadata>
Created by potrace 1.11, written by Peter Selinger 2001-2013
</metadata>
<g transform="translate(0.000000,260.000000) scale(0.100000,-0.100000)"
fill="#000000" stroke="none">
<path d="M0 1300 l0 -1300 1300 0 1300 0 0 1300 0 1300 -1300 0 -1300 0 0
-1300z m1727 714 c23 -23 25 -31 21 -101 -3 -65 -7 -78 -28 -95 -21 -17 -36
-19 -96 -16 -53 2 -78 8 -93 22 -20 18 -21 17 -111 -60 -49 -43 -90 -81 -90
-85 0 -8 316 -269 325 -269 3 0 114 76 246 169 275 195 301 206 402 177 109
-32 171 -114 171 -226 0 -76 -23 -130 -76 -176 -19 -16 -134 -99 -255 -184
-122 -85 -221 -158 -220 -162 1 -4 44 -43 96 -87 l95 -79 18 24 c18 22 27 24
97 24 110 0 121 -10 121 -108 0 -112 -9 -122 -112 -122 -99 0 -118 12 -118 76
0 41 -1 43 -121 144 l-121 103 -59 -42 c-66 -47 -125 -71 -173 -71 -73 0 -119
29 -366 230 l-244 200 -26 -17 c-181 -118 -370 -248 -368 -253 2 -4 61 -57
132 -119 l129 -112 21 20 c19 17 35 21 99 21 105 0 117 -12 117 -115 0 -103
-12 -115 -118 -115 -94 0 -111 12 -121 88 -6 48 -8 50 -155 179 l-149 131 -66
-44 c-87 -57 -151 -71 -226 -50 -161 47 -227 244 -123 370 31 38 720 505 784
532 42 17 117 17 166 0 20 -7 59 -31 85 -53 26 -22 54 -43 61 -47 8 -5 52 27
122 89 109 96 110 97 110 141 0 34 6 51 25 69 21 22 33 25 95 25 63 0 74 -3
97 -26z"/>
</g>
</svg>
