<?xml version="1.0" encoding="utf-8"?>
<!-- Generator: Adobe Illustrator 19.0.0, SVG Export Plug-In . SVG Version: 6.00 Build 0)  -->
<svg version="1.1" xmlns="http://www.w3.org/2000/svg" xmlns:xlink="http://www.w3.org/1999/xlink" x="0px" y="0px"
	 viewBox="-469 471 60 60" enable-background="new -469 471 60 60" xml:space="preserve">
<g id="Layer_1">
	<g id="Layer_1_2_">
		<g id="LINES" opacity="0.6">
		</g>
		<g id="grayboxes" opacity="0.7">
		</g>
		<g id="ICONS">
		</g>
		<a id="BOXES_STROKE">
		</a>
		<g id="SMALLTEXT">
		</g>
		<g id="Isolation_Mode">
		</g>
		<g id="Layer_1_1_">
		</g>
	</g>
</g>
<g id="Isolation_Mode_1_">
</g>
<g id="grayboxes_1_">
</g>
<g id="ICONS_1_">
</g>
<g id="BOXES_STROKE_1_">
	<a xlink:href="//{Host}/tagged/maxparticles#adr2#adr2week6" >
		<g opacity="0.5">
			<path fill="none" stroke="#231F20" stroke-width="1.5" stroke-miterlimit="10" stroke-dasharray="2.9996,0.9999" d="
				M-412.31,520.562c0,3.635-2.947,6.58-6.582,6.58h-40.219c-3.635,0-6.58-2.945-6.58-6.58v-39.123c0-3.633,2.945-6.582,6.58-6.582
				h40.219c3.635,0,6.582,2.949,6.582,6.582V520.562z"/>
		</g>
	</a>
	<g opacity="0.5">
		<path d="M-446.433,505.077v-0.896c0-4.626,4.974-5.147,4.974-8.617c0-1.561-1.128-2.284-2.371-2.284
			c-1.677,0-2.487,1.07-2.487,2.689v0.347h-3.99c0-4.077,2.544-6.564,6.592-6.564c3.268,0,6.42,1.793,6.42,5.783
			c0,4.974-5.147,5.494-5.147,8.935v0.607H-446.433z M-446.693,509.82c0-1.33,1.099-2.429,2.429-2.429s2.429,1.099,2.429,2.429
			s-1.099,2.429-2.429,2.429S-446.693,511.15-446.693,509.82z"/>
		<path d="M-432.122,507.391c1.33,0,2.43,1.099,2.43,2.429s-1.1,2.429-2.43,2.429s-2.429-1.099-2.429-2.429
			S-433.452,507.391-432.122,507.391z M-434.203,490.156h4.163v14.921h-4.163V490.156z"/>
	</g>
</g>
</svg>
