<?xml version="1.0" encoding="utf-8"?>
<!-- Generator: Adobe Illustrator 19.0.0, SVG Export Plug-In . SVG Version: 6.00 Build 0)  -->
<svg version="1.1" xmlns="http://www.w3.org/2000/svg" xmlns:xlink="http://www.w3.org/1999/xlink" x="0px" y="0px"
	 viewBox="0 0 50 50" style="enable-background:new 0 0 50 50;" xml:space="preserve">
<style type="text/css">
	.st0{clip-path:url(#XMLID_130_);fill:#939598;}
	.st1{fill:#FFFFFF;}
	.st2{fill:#C8C6C5;}
</style>
<g id="Layer_3">
	<g id="XMLID_56_">
		<defs>
			<rect id="XMLID_57_" x="0.5" y="0.5" width="49" height="49"/>
		</defs>
		<clipPath id="XMLID_130_">
			<use xlink:href="#XMLID_57_"  style="overflow:visible;"/>
		</clipPath>
		<path id="XMLID_58_" class="st0" d="M11.4,0.5c0,0-10.9,0-10.9,10.9v27.2c0,0,0,10.9,10.9,10.9h27.2c0,0,10.9,0,10.9-10.9V11.4
			c0,0,0-10.9-10.9-10.9H11.4z"/>
	</g>
</g>
<g id="Layer_1">
	<polygon id="XMLID_55_" class="st1" points="27,7.1 12.6,7.1 11.9,7.1 11.9,7.8 11.9,42.2 11.9,42.9 12.6,42.9 37.4,42.9 
		38.1,42.9 38.1,42.2 38.1,18.1 38.1,17.9 37.9,17.6 27.5,7.3 27.3,7.1 	"/>
	<path id="XMLID_89_" d="M27.9,6.8l-0.4-0.4H11.2v37.2h27.6v-26L27.9,6.8z M27.9,8.8l8.5,8.4h-8.5V8.8z M12.6,42.2V7.8h14v10.8h10.9
		v23.6H12.6z"/>
	<g id="XMLID_51_">
		<path id="XMLID_52_" class="st2" d="M21.1,30.6c2.8,0,5.1-2.3,5.1-5.1s-2.3-5.1-5.1-5.1S16,22.7,16,25.5S18.3,30.6,21.1,30.6"/>
	</g>
	<polygon id="XMLID_50_" class="st2" points="28.5,26.2 23.7,35.8 33.3,35.8 	"/>
</g>
</svg>
