<?xml version="1.0" encoding="utf-8"?>
<!-- Generator: Adobe Illustrator 15.0.0, SVG Export Plug-In . SVG Version: 6.00 Build 0)  -->
<!DOCTYPE svg PUBLIC "-//W3C//DTD SVG 1.1//EN" "http://www.w3.org/Graphics/SVG/1.1/DTD/svg11.dtd">
<svg version="1.1" id="Layer_1" xmlns="http://www.w3.org/2000/svg" xmlns:xlink="http://www.w3.org/1999/xlink" x="0px" y="0px"
	 width="182px" height="31px" viewBox="0 0 182 31" enable-background="new 0 0 182 31" xml:space="preserve">
<g>
	<defs>
		<rect id="SVGID_1_" width="182" height="31"/>
	</defs>
	<clipPath id="SVGID_2_">
		<use xlink:href="#SVGID_1_"  overflow="visible"/>
	</clipPath>
	<path clip-path="url(#SVGID_2_)" fill="#FFFFFF" d="M76.066,17.175c0.345,0.534,0.637,0.981,1.688,1.326
		c0.5,0.172,1.12,0.275,1.706,0.275c0.31,0,1.826-0.034,1.826-0.913c0-0.086,0-0.534-0.672-0.758
		c-0.431-0.155-2.67-0.551-3.17-0.672c-1.12-0.293-3.307-0.982-3.307-3.549c0-0.534,0.12-1.085,0.344-1.567
		c0.793-1.792,2.843-2.498,5.03-2.498c1.396,0,2.671,0.275,3.67,0.775c0.913,0.447,1.361,0.93,1.791,1.378l-2.411,2.015
		c-0.19-0.241-0.396-0.516-0.931-0.792c-0.706-0.344-1.636-0.448-2.256-0.448c-0.655,0-1.378,0.172-1.378,0.792
		c0,0.586,0.62,0.741,1.671,0.931c2.704,0.465,5.392,0.947,5.392,3.962c0,1.275-0.535,2.171-1.086,2.739
		c-1.533,1.567-3.979,1.567-4.651,1.567c-0.913,0-1.878-0.086-2.825-0.361c-1.93-0.552-2.826-1.637-3.377-2.309L76.066,17.175z"/>
	<polygon clip-path="url(#SVGID_2_)" fill="#FFFFFF" points="86.108,9.216 89.95,9.216 89.95,13.816 93.775,9.216 98.477,9.216 
		94.239,13.832 98.77,21.378 94.446,21.378 91.759,16.52 89.967,18.501 89.967,21.378 86.108,21.378 	"/>
	<rect x="99.181" y="9.216" clip-path="url(#SVGID_2_)" fill="#FFFFFF" width="3.859" height="12.162"/>
	<polygon clip-path="url(#SVGID_2_)" fill="#FFFFFF" points="104.503,9.198 108.346,9.198 108.346,18.312 113.049,18.312 
		113.049,21.378 104.503,21.378 	"/>
	<polygon clip-path="url(#SVGID_2_)" fill="#FFFFFF" points="113.547,9.198 117.389,9.198 117.389,18.312 122.092,18.312 
		122.092,21.378 113.547,21.378 	"/>
	<polygon clip-path="url(#SVGID_2_)" fill="#FFFFFF" points="126.861,9.198 136.87,9.198 136.87,12.213 133.787,12.213 
		133.787,21.378 129.944,21.378 129.944,12.213 126.861,12.213 	"/>
	<path clip-path="url(#SVGID_2_)" fill="#FFFFFF" d="M137.352,9.198h6.063c1.154,0,2.257,0.07,2.997,0.379
		c1.62,0.69,2.103,2.343,2.103,3.515c0,0.465-0.052,1.551-0.931,2.446c-0.482,0.517-0.999,0.706-1.567,0.93l2.964,4.91h-4.273
		l-2.359-4.29h-1.138v4.29h-3.858V9.198z M141.21,11.748v2.843h1.604c0.636,0,1.859-0.035,1.859-1.413
		c0-1.396-1.206-1.43-1.878-1.43H141.21z"/>
	<polygon clip-path="url(#SVGID_2_)" fill="#FFFFFF" points="149.494,9.216 159.125,9.216 159.125,11.886 153.354,11.886 
		153.354,13.695 158.746,13.695 158.746,16.33 153.354,16.33 153.354,18.742 159.641,18.742 159.641,21.378 149.494,21.378 	"/>
	<polygon clip-path="url(#SVGID_2_)" fill="#FFFFFF" points="160.622,9.216 170.252,9.216 170.252,11.886 164.48,11.886 
		164.48,13.695 169.873,13.695 169.873,16.33 164.48,16.33 164.48,18.742 170.77,18.742 170.77,21.378 160.622,21.378 	"/>
	<path clip-path="url(#SVGID_2_)" fill="#201E1F" d="M77.065,16.073c0.345,0.534,0.637,0.981,1.688,1.326
		c0.5,0.172,1.12,0.275,1.706,0.275c0.31,0,1.826-0.034,1.826-0.914c0-0.085,0-0.533-0.672-0.757
		c-0.431-0.156-2.67-0.551-3.17-0.672c-1.12-0.293-3.307-0.982-3.307-3.549c0-0.534,0.12-1.085,0.344-1.567
		c0.793-1.792,2.843-2.498,5.03-2.498c1.396,0,2.671,0.275,3.67,0.775c0.913,0.447,1.361,0.93,1.791,1.378l-2.411,2.015
		c-0.19-0.241-0.396-0.516-0.931-0.792c-0.706-0.344-1.636-0.448-2.256-0.448c-0.655,0-1.378,0.172-1.378,0.792
		c0,0.586,0.62,0.741,1.671,0.931c2.704,0.465,5.392,0.947,5.392,3.962c0,1.275-0.535,2.171-1.086,2.739
		c-1.533,1.566-3.979,1.566-4.651,1.566c-0.913,0-1.878-0.085-2.825-0.36c-1.93-0.552-2.826-1.637-3.377-2.309L77.065,16.073z"/>
	<polygon clip-path="url(#SVGID_2_)" fill="#201E1F" points="87.107,8.114 90.949,8.114 90.949,12.714 94.773,8.114 99.476,8.114 
		95.238,12.73 99.769,20.276 95.445,20.276 92.758,15.418 90.966,17.399 90.966,20.276 87.107,20.276 	"/>
	<rect x="100.181" y="8.114" clip-path="url(#SVGID_2_)" fill="#201E1F" width="3.859" height="12.163"/>
	<polygon clip-path="url(#SVGID_2_)" fill="#201E1F" points="105.503,8.097 109.345,8.097 109.345,17.21 114.048,17.21 
		114.048,20.276 105.503,20.276 	"/>
	<polygon clip-path="url(#SVGID_2_)" fill="#201E1F" points="114.546,8.097 118.388,8.097 118.388,17.21 123.091,17.21 
		123.091,20.276 114.546,20.276 	"/>
	<polygon clip-path="url(#SVGID_2_)" fill="#201E1F" points="127.86,8.097 137.869,8.097 137.869,11.112 134.786,11.112 
		134.786,20.276 130.943,20.276 130.943,11.112 127.86,11.112 	"/>
	<path clip-path="url(#SVGID_2_)" fill="#201E1F" d="M138.351,8.097h6.063c1.154,0,2.258,0.07,2.998,0.379
		c1.619,0.69,2.102,2.343,2.102,3.515c0,0.465-0.051,1.551-0.93,2.446c-0.482,0.517-1,0.706-1.568,0.93l2.963,4.91h-4.271
		l-2.36-4.29h-1.138v4.29h-3.858V8.097z M142.209,10.646v2.843h1.604c0.637,0,1.859-0.035,1.859-1.413
		c0-1.396-1.205-1.43-1.877-1.43H142.209z"/>
	<polygon clip-path="url(#SVGID_2_)" fill="#201E1F" points="150.494,8.114 160.124,8.114 160.124,10.784 154.354,10.784 
		154.354,12.593 159.745,12.593 159.745,15.229 154.354,15.229 154.354,17.641 160.64,17.641 160.64,20.276 150.494,20.276 	"/>
	<polygon clip-path="url(#SVGID_2_)" fill="#201E1F" points="161.621,8.114 171.252,8.114 171.252,10.784 165.48,10.784 
		165.48,12.593 170.873,12.593 170.873,15.229 165.48,15.229 165.48,17.641 171.769,17.641 171.769,20.276 161.621,20.276 	"/>
	<path clip-path="url(#SVGID_2_)" fill="#201E1F" d="M17.089,20.207c-0.551,0.413-1.602,1.172-3.652,1.172
		c-0.913,0-1.671-0.173-2.291-0.431c-1.155-0.466-3.687-2.103-3.687-5.892c0-3.497,2.256-6.65,6.495-6.65
		c1.825,0,3.703,0.638,4.909,1.826c0.724,0.706,0.965,1.362,1.172,1.93l-3.446,0.965c-0.086-0.379-0.172-0.793-0.551-1.172
		c-0.362-0.361-0.982-0.638-1.792-0.638c-0.913,0-1.55,0.345-1.929,0.707c-0.948,0.878-0.948,2.326-0.948,2.877
		c0,0.724,0.052,1.895,0.913,2.774c0.759,0.792,1.654,0.81,2.068,0.81c0.344,0,1.223-0.034,1.826-0.654
		c0.327-0.345,0.379-0.672,0.465-1.052h-2.257v-2.445h5.582v6.718h-2.877V20.207z"/>
	<path clip-path="url(#SVGID_2_)" fill="#201E1F" d="M23.409,16.865c0.345,0.534,0.637,0.981,1.688,1.326
		c0.5,0.172,1.12,0.275,1.706,0.275c0.31,0,1.826-0.034,1.826-0.914c0-0.085,0-0.533-0.672-0.757
		c-0.431-0.155-2.67-0.551-3.17-0.672c-1.12-0.293-3.307-0.982-3.307-3.549c0-0.534,0.12-1.085,0.344-1.567
		c0.793-1.792,2.843-2.498,5.03-2.498c1.396,0,2.671,0.275,3.67,0.775c0.913,0.447,1.361,0.93,1.791,1.378l-2.411,2.015
		c-0.19-0.241-0.396-0.516-0.931-0.792c-0.706-0.344-1.636-0.448-2.256-0.448c-0.655,0-1.378,0.172-1.378,0.792
		c0,0.586,0.62,0.741,1.671,0.931c2.704,0.465,5.392,0.947,5.392,3.962c0,1.275-0.535,2.171-1.086,2.739
		c-1.533,1.567-3.979,1.567-4.651,1.567c-0.913,0-1.878-0.086-2.825-0.361c-1.93-0.551-2.826-1.637-3.377-2.309L23.409,16.865z"/>
	<path clip-path="url(#SVGID_2_)" fill="#201E1F" d="M36.862,8.906h4.375l4.548,12.162h-4.134l-0.535-1.688h-4.237l-0.535,1.688
		H32.21L36.862,8.906z M39.032,12.368l-1.327,4.29h2.619L39.032,12.368z"/>
	<path clip-path="url(#SVGID_2_)" fill="#201E1F" d="M46.317,8.889h6.96c1.327,0.051,2.481,0.121,3.463,1.136
		c0.895,0.949,1.016,2.068,1.016,2.843c0,1.017-0.206,2.119-1.154,3.101c-1.016,1.05-2.136,1.102-3.463,1.137h-2.963v3.962h-3.859
		V8.889z M50.176,11.456v3.101h2.205c0.207-0.018,0.431-0.018,0.638-0.086c0.585-0.19,0.93-0.742,0.93-1.482
		c0-1.43-1.12-1.499-1.602-1.533H50.176z"/>
	<path clip-path="url(#SVGID_2_)" fill="#201E1F" d="M58.289,8.889h6.96c1.327,0.051,2.481,0.121,3.463,1.136
		c0.895,0.949,1.016,2.068,1.016,2.843c0,1.017-0.206,2.119-1.154,3.101c-1.016,1.05-2.136,1.102-3.463,1.137h-2.963v3.962h-3.859
		V8.889z M62.148,11.456v3.101h2.205c0.207-0.018,0.431-0.018,0.638-0.086c0.585-0.19,0.93-0.742,0.93-1.482
		c0-1.43-1.12-1.499-1.602-1.533H62.148z"/>
</g>
</svg>
