<?xml version="1.0" encoding="utf-8"?>
<!-- Generator: Adobe Illustrator 15.0.0, SVG Export Plug-In . SVG Version: 6.00 Build 0)  -->
<!DOCTYPE svg PUBLIC "-//W3C//DTD SVG 1.1//EN" "http://www.w3.org/Graphics/SVG/1.1/DTD/svg11.dtd">
<svg version="1.1" id="Layer_1" xmlns="http://www.w3.org/2000/svg" xmlns:xlink="http://www.w3.org/1999/xlink" x="0px" y="0px"
	 width="162px" height="162px" viewBox="0 202.5 162 162" enable-background="new 0 202.5 162 162" xml:space="preserve">
<circle fill="#3ABCD5" cx="81" cy="283.5" r="81"/>
<g id="Layer_4">
	<g id="XMLID_128_">
		
			<polyline id="XMLID_144_" fill="none" stroke="#FFFFFF" stroke-width="8.642" stroke-linecap="round" stroke-linejoin="round" points="
			25.92,293.544 66.42,266.652 101.736,295.488 137.376,270.216 		"/>
		<g id="XMLID_136_">
			<path id="XMLID_143_" fill="#B6B8BA" d="M22.356,300.672c0,0-2.916,0-2.916-2.916v-8.424c0,0,0-2.916,2.916-2.916h8.424
				c0,0,2.916,0,2.916,2.916v8.424c0,0,0,2.916-2.916,2.916H22.356z"/>
			<path id="XMLID_142_" fill="#B6B8BA" d="M62.532,276.696c0,0-4.86,0-4.86-4.86V267.3c0,0,0-4.86,4.86-4.86h4.86
				c0,0,4.86,0,4.86,4.86v4.86c0,0,0,4.86-4.86,4.86h-4.86V276.696z"/>
			<path id="XMLID_141_" fill="#B6B8BA" d="M98.496,254.34c0,0-4.859,0-4.859-4.86v-4.86c0,0,0-4.86,4.859-4.86h4.859
				c0,0,4.86,0,4.86,4.86v4.86c0,0,0,4.86-4.86,4.86H98.496z"/>
			<path id="XMLID_140_" fill="#B6B8BA" d="M134.46,279.612c0,0-4.86,0-4.86-4.86v-4.86c0,0,0-4.86,4.86-4.86h4.86
				c0,0,4.859,0,4.859,4.86v4.86c0,0,0,4.86-4.859,4.86H134.46z"/>
			<path id="XMLID_139_" fill="#B6B8BA" d="M62.532,325.296c0,0-4.86,0-4.86-4.86v-4.859c0,0,0-4.86,4.86-4.86h4.86
				c0,0,4.86,0,4.86,4.86v4.859c0,0,0,4.86-4.86,4.86H62.532z"/>
			<path id="XMLID_138_" fill="#B6B8BA" d="M98.496,300.348c0,0-4.859,0-4.859-4.859v-4.86c0,0,0-4.86,4.859-4.86h4.859
				c0,0,4.86,0,4.86,4.86v4.86c0,0,0,4.859-4.86,4.859H98.496z"/>
			<path id="XMLID_137_" fill="#B6B8BA" d="M134.46,322.38c0,0-4.86,0-4.86-4.86v-4.859c0,0,0-4.86,4.86-4.86h4.86
				c0,0,4.859,0,4.859,4.86v4.859c0,0,0,4.86-4.859,4.86H134.46z"/>
		</g>
		<g id="XMLID_129_">
			<line id="XMLID_135_" fill="none" stroke="#B6B8BA" stroke-width="0.9101" x1="30.78" y1="291.924" x2="59.616" y2="316.872"/>
			<line id="XMLID_134_" fill="none" stroke="#B6B8BA" stroke-width="0.9101" x1="26.568" y1="297.756" x2="59.616" y2="269.568"/>
			<line id="XMLID_133_" fill="none" stroke="#B6B8BA" stroke-width="0.9101" x1="65.124" y1="274.752" x2="97.2" y2="247.212"/>
			
				<line id="XMLID_132_" fill="none" stroke="#B6B8BA" stroke-width="0.9101" x1="106.271" y1="294.191" x2="131.544" y2="272.808"/>
			<line id="XMLID_131_" fill="none" stroke="#B6B8BA" stroke-width="0.9101" x1="70.308" y1="270.864" x2="95.58" y2="292.248"/>
			
				<line id="XMLID_130_" fill="none" stroke="#B6B8BA" stroke-width="0.9101" x1="106.271" y1="293.221" x2="131.544" y2="314.604"/>
		</g>
	</g>
</g>
<g id="Layer_3" display="none">
	<g id="XMLID_9_" display="inline">
		
			<polyline id="XMLID_6_" fill="none" stroke="#3ABCD5" stroke-width="8.642" stroke-linecap="round" stroke-linejoin="round" points="
			25.92,293.544 66.42,266.652 101.736,295.488 137.376,270.216 		"/>
		<g id="XMLID_4_">
			<path id="XMLID_35_" fill="#939598" d="M22.356,300.672c0,0-2.916,0-2.916-2.916v-8.424c0,0,0-2.916,2.916-2.916h8.424
				c0,0,2.916,0,2.916,2.916v8.424c0,0,0,2.916-2.916,2.916H22.356z"/>
			<path id="XMLID_34_" fill="#939598" d="M62.532,276.696c0,0-4.86,0-4.86-4.86V267.3c0,0,0-4.86,4.86-4.86h4.86
				c0,0,4.86,0,4.86,4.86v4.86c0,0,0,4.86-4.86,4.86h-4.86V276.696z"/>
			<path id="XMLID_33_" fill="#939598" d="M98.496,254.34c0,0-4.859,0-4.859-4.86v-4.86c0,0,0-4.86,4.859-4.86h4.859
				c0,0,4.86,0,4.86,4.86v4.86c0,0,0,4.86-4.86,4.86H98.496z"/>
			<path id="XMLID_32_" fill="#939598" d="M134.46,279.612c0,0-4.86,0-4.86-4.86v-4.86c0,0,0-4.86,4.86-4.86h4.86
				c0,0,4.859,0,4.859,4.86v4.86c0,0,0,4.86-4.859,4.86H134.46z"/>
			<path id="XMLID_31_" fill="#939598" d="M62.532,325.296c0,0-4.86,0-4.86-4.86v-4.859c0,0,0-4.86,4.86-4.86h4.86
				c0,0,4.86,0,4.86,4.86v4.859c0,0,0,4.86-4.86,4.86H62.532z"/>
			<path id="XMLID_30_" fill="#939598" d="M98.496,300.348c0,0-4.859,0-4.859-4.859v-4.86c0,0,0-4.86,4.859-4.86h4.859
				c0,0,4.86,0,4.86,4.86v4.86c0,0,0,4.859-4.86,4.859H98.496z"/>
			<path id="XMLID_29_" fill="#939598" d="M134.46,322.38c0,0-4.86,0-4.86-4.86v-4.859c0,0,0-4.86,4.86-4.86h4.86
				c0,0,4.859,0,4.859,4.86v4.859c0,0,0,4.86-4.859,4.86H134.46z"/>
		</g>
		<g id="XMLID_1_">
			<line id="XMLID_28_" fill="none" stroke="#939598" stroke-width="0.9101" x1="30.78" y1="291.924" x2="59.616" y2="316.872"/>
			<line id="XMLID_27_" fill="none" stroke="#939598" stroke-width="0.9101" x1="26.568" y1="297.756" x2="59.616" y2="269.568"/>
			<line id="XMLID_26_" fill="none" stroke="#939598" stroke-width="0.9101" x1="65.124" y1="274.752" x2="97.2" y2="247.212"/>
			<line id="XMLID_25_" fill="none" stroke="#939598" stroke-width="0.9101" x1="106.271" y1="294.191" x2="131.544" y2="272.808"/>
			<line id="XMLID_24_" fill="none" stroke="#939598" stroke-width="0.9101" x1="70.308" y1="270.864" x2="95.58" y2="292.248"/>
			<line id="XMLID_23_" fill="none" stroke="#939598" stroke-width="0.9101" x1="106.271" y1="293.221" x2="131.544" y2="314.604"/>
		</g>
	</g>
</g>
</svg>
