<?xml version="1.0" encoding="utf-8"?>
<!-- Generator: Adobe Illustrator 19.0.0, SVG Export Plug-In . SVG Version: 6.00 Build 0)  -->
<svg version="1.1" xmlns="http://www.w3.org/2000/svg" xmlns:xlink="http://www.w3.org/1999/xlink" x="0px" y="0px"
	 viewBox="0 0 50 50" style="enable-background:new 0 0 50 50;" xml:space="preserve">
<style type="text/css">
	.st0{fill:#3ABCD5;}
	.st1{fill:none;stroke:#FFFFFF;stroke-width:8.642;stroke-linecap:round;stroke-linejoin:round;}
	.st2{fill:#B6B8BA;}
	.st3{fill:none;stroke:#B6B8BA;stroke-width:0.9101;}
	.st4{display:none;}
	.st5{display:inline;}
	.st6{fill:none;stroke:#3ABCD5;stroke-width:8.642;stroke-linecap:round;stroke-linejoin:round;}
	.st7{fill:#939598;}
	.st8{fill:none;stroke:#939598;stroke-width:0.9101;}
</style>
<g id="Layer_4">
	<rect id="XMLID_87_" y="0" class="st0" width="50" height="50"/>
	<g id="XMLID_128_">
		<polyline id="XMLID_144_" class="st1" points="8,28.1 20.5,19.8 31.4,28.7 42.4,20.9 		"/>
		<g id="XMLID_136_">
			<path id="XMLID_143_" class="st2" d="M6.9,30.3c0,0-0.9,0-0.9-0.9v-2.6c0,0,0-0.9,0.9-0.9h2.6c0,0,0.9,0,0.9,0.9v2.6
				c0,0,0,0.9-0.9,0.9H6.9z"/>
			<path id="XMLID_142_" class="st2" d="M19.3,22.9c0,0-1.5,0-1.5-1.5V20c0,0,0-1.5,1.5-1.5h1.5c0,0,1.5,0,1.5,1.5v1.5
				c0,0,0,1.5-1.5,1.5H19.3z"/>
			<path id="XMLID_141_" class="st2" d="M30.4,16c0,0-1.5,0-1.5-1.5V13c0,0,0-1.5,1.5-1.5h1.5c0,0,1.5,0,1.5,1.5v1.5
				c0,0,0,1.5-1.5,1.5H30.4z"/>
			<path id="XMLID_140_" class="st2" d="M41.5,23.8c0,0-1.5,0-1.5-1.5v-1.5c0,0,0-1.5,1.5-1.5H43c0,0,1.5,0,1.5,1.5v1.5
				c0,0,0,1.5-1.5,1.5H41.5z"/>
			<path id="XMLID_139_" class="st2" d="M19.3,37.9c0,0-1.5,0-1.5-1.5v-1.5c0,0,0-1.5,1.5-1.5h1.5c0,0,1.5,0,1.5,1.5v1.5
				c0,0,0,1.5-1.5,1.5H19.3z"/>
			<path id="XMLID_138_" class="st2" d="M30.4,30.2c0,0-1.5,0-1.5-1.5v-1.5c0,0,0-1.5,1.5-1.5h1.5c0,0,1.5,0,1.5,1.5v1.5
				c0,0,0,1.5-1.5,1.5H30.4z"/>
			<path id="XMLID_137_" class="st2" d="M41.5,37c0,0-1.5,0-1.5-1.5V34c0,0,0-1.5,1.5-1.5H43c0,0,1.5,0,1.5,1.5v1.5
				c0,0,0,1.5-1.5,1.5H41.5z"/>
		</g>
		<g id="XMLID_129_">
			<line id="XMLID_135_" class="st3" x1="9.5" y1="27.6" x2="18.4" y2="35.3"/>
			<line id="XMLID_134_" class="st3" x1="8.2" y1="29.4" x2="18.4" y2="20.7"/>
			<line id="XMLID_133_" class="st3" x1="20.1" y1="22.3" x2="30" y2="13.8"/>
			<line id="XMLID_132_" class="st3" x1="32.8" y1="28.3" x2="40.6" y2="21.7"/>
			<line id="XMLID_131_" class="st3" x1="21.7" y1="21.1" x2="29.5" y2="27.7"/>
			<line id="XMLID_130_" class="st3" x1="32.8" y1="28" x2="40.6" y2="34.6"/>
		</g>
	</g>
</g>
<g id="Layer_3" class="st4">
	<g id="XMLID_9_" class="st5">
		<polyline id="XMLID_6_" class="st6" points="8,28.1 20.5,19.8 31.4,28.7 42.4,20.9 		"/>
		<g id="XMLID_4_">
			<path id="XMLID_35_" class="st7" d="M6.9,30.3c0,0-0.9,0-0.9-0.9v-2.6c0,0,0-0.9,0.9-0.9h2.6c0,0,0.9,0,0.9,0.9v2.6
				c0,0,0,0.9-0.9,0.9H6.9z"/>
			<path id="XMLID_34_" class="st7" d="M19.3,22.9c0,0-1.5,0-1.5-1.5V20c0,0,0-1.5,1.5-1.5h1.5c0,0,1.5,0,1.5,1.5v1.5
				c0,0,0,1.5-1.5,1.5H19.3z"/>
			<path id="XMLID_33_" class="st7" d="M30.4,16c0,0-1.5,0-1.5-1.5V13c0,0,0-1.5,1.5-1.5h1.5c0,0,1.5,0,1.5,1.5v1.5
				c0,0,0,1.5-1.5,1.5H30.4z"/>
			<path id="XMLID_32_" class="st7" d="M41.5,23.8c0,0-1.5,0-1.5-1.5v-1.5c0,0,0-1.5,1.5-1.5H43c0,0,1.5,0,1.5,1.5v1.5
				c0,0,0,1.5-1.5,1.5H41.5z"/>
			<path id="XMLID_31_" class="st7" d="M19.3,37.9c0,0-1.5,0-1.5-1.5v-1.5c0,0,0-1.5,1.5-1.5h1.5c0,0,1.5,0,1.5,1.5v1.5
				c0,0,0,1.5-1.5,1.5H19.3z"/>
			<path id="XMLID_30_" class="st7" d="M30.4,30.2c0,0-1.5,0-1.5-1.5v-1.5c0,0,0-1.5,1.5-1.5h1.5c0,0,1.5,0,1.5,1.5v1.5
				c0,0,0,1.5-1.5,1.5H30.4z"/>
			<path id="XMLID_29_" class="st7" d="M41.5,37c0,0-1.5,0-1.5-1.5V34c0,0,0-1.5,1.5-1.5H43c0,0,1.5,0,1.5,1.5v1.5
				c0,0,0,1.5-1.5,1.5H41.5z"/>
		</g>
		<g id="XMLID_1_">
			<line id="XMLID_28_" class="st8" x1="9.5" y1="27.6" x2="18.4" y2="35.3"/>
			<line id="XMLID_27_" class="st8" x1="8.2" y1="29.4" x2="18.4" y2="20.7"/>
			<line id="XMLID_26_" class="st8" x1="20.1" y1="22.3" x2="30" y2="13.8"/>
			<line id="XMLID_25_" class="st8" x1="32.8" y1="28.3" x2="40.6" y2="21.7"/>
			<line id="XMLID_24_" class="st8" x1="21.7" y1="21.1" x2="29.5" y2="27.7"/>
			<line id="XMLID_23_" class="st8" x1="32.8" y1="28" x2="40.6" y2="34.6"/>
		</g>
	</g>
</g>
</svg>
